<?xml version="1.0" standalone="no"?>
<!DOCTYPE svg PUBLIC "-//W3C//DTD SVG 1.1//EN" "http://www.w3.org/Graphics/SVG/1.1/DTD/svg11.dtd" >
<svg xmlns="http://www.w3.org/2000/svg">
<metadata></metadata>
<defs>
<font id="digital-7regular" horiz-adv-x="968" >
<font-face units-per-em="2048" ascent="1638" descent="-410" />
<missing-glyph horiz-adv-x="558" />
<glyph horiz-adv-x="2048" />
<glyph horiz-adv-x="2048" />
<glyph unicode="&#xd;" horiz-adv-x="930" />
<glyph unicode=" "  horiz-adv-x="558" />
<glyph unicode="&#x09;" horiz-adv-x="558" />
<glyph unicode="&#xa0;" horiz-adv-x="558" />
<glyph unicode="!" horiz-adv-x="335" d="M93 0v149h149v-149h-149zM93 298v242l112 112l37 -38v-316h-149zM93 801v391l56 149q74 -19 93 -94v-521l-37 -37z" />
<glyph unicode="&#x22;" horiz-adv-x="634" d="M93 1043v298h149v-298l-74 -75zM393 1044v298h149v-298l-75 -74z" />
<glyph unicode="#" horiz-adv-x="1005" d="M93 521l75 75h74l75 -75l-75 -74h-74zM93 817l75 75h74l75 -75l-75 -74h-74zM279 296v114l75 74l74 -74v-114l-74 -74zM279 633v74l75 75l74 -75v-74l-74 -74zM279 931v112l75 74l74 -74v-112l-74 -75zM391 521l74 75h75l74 -75l-74 -74h-75zM391 819l74 75h75l74 -75 l-74 -74h-75zM577 298v113l75 75l74 -75v-113l-74 -75zM577 633v74l75 75l74 -75v-74l-74 -74zM577 931v112l75 74l74 -74v-112l-74 -75zM689 519l74 75h75l74 -75l-74 -74h-75zM689 819l74 75h75l74 -75l-74 -74h-75z" />
<glyph unicode="$" d="M93 93l149 56h447l56 -149h-559q-74 19 -93 93zM93 726v484l149 -56v-353l-112 -112zM95 1247q19 74 93 94h594q74 -19 93 -94l-149 -55h-482zM168 670l74 75h484l75 -75l-75 -74h-484zM428 -56h149v-93l-74 -74l-75 74v93zM428 205v335h149v-335h-149zM428 801v335h149 v-335h-149zM428 1396v93l75 75l74 -75v-93h-149zM726 149v391l112 112l37 -38v-521q-19 -74 -93 -93z" />
<glyph unicode="%" horiz-adv-x="1117" d="M93 987v223l149 -56v-111l-56 -149q-74 19 -93 93zM93 1247q19 74 93 94h224l-56 -149h-112zM168 74l286 578h84v-201l-221 -451q-112 0 -149 74zM223 894l56 149h112l149 -56q-19 -74 -93 -93h-224zM391 1080v112l56 149q74 -19 93 -94v-223zM577 93v224l149 -56v-112 l-56 -149q-74 19 -93 93zM577 354q19 74 93 93h224l-56 -149h-112zM579 689v201l222 451q112 0 149 -75l-287 -577h-84zM707 0l56 149h112l149 -56q-19 -74 -93 -93h-224zM875 186v112l56 149q74 -19 93 -93v-224z" />
<glyph unicode="&#x26;" horiz-adv-x="1042" d="M93 93l149 56h596l112 -112l-38 -37h-726q-74 19 -93 93zM93 130v484l37 38l112 -112v-354zM168 670l74 75h484l75 -75l-75 -74h-484zM168 801v335l149 -56v-205l-112 -112zM168 1173q19 74 93 93h409l-56 -149h-297zM652 875v242l55 149q74 -19 94 -93v-372l-38 -38z M726 -37h149v-93l-37 -38l-112 112v19zM726 242v298l112 112l37 -38v-428h-93z" />
<glyph unicode="'" horiz-adv-x="335" d="M93 1043v298h149v-298l-74 -75z" />
<glyph unicode="(" horiz-adv-x="651" d="M93 186v428l37 38l112 -112v-391l-56 -56zM93 726v428l93 93l56 -55v-391l-112 -112zM205 74l74 75h205l75 -75l-75 -74h-205zM205 1266l74 75h205l75 -75l-75 -74h-205z" />
<glyph unicode=")" horiz-adv-x="651" d="M93 74l75 75h204l75 -75l-75 -74h-204zM93 1266l75 75h204l75 -75l-75 -74h-204zM410 149v391l111 112l38 -38v-428l-94 -93zM410 801v391l55 55l94 -93v-428l-38 -37z" />
<glyph unicode="*" horiz-adv-x="800" d="M93 493l28 103l128 74l-128 75l-28 102l102 28l131 -74v149l74 74l75 -74v-149l130 74l102 -28l-27 -102l-129 -75l129 -74l27 -103l-102 -28l-130 75v-149l-75 -74l-74 74v149l-131 -75z" />
<glyph unicode="+" horiz-adv-x="819" d="M93 670l75 75h167v167l75 75l74 -75v-167h168l74 -75l-74 -74h-168v-168l-74 -74l-75 74v168h-167z" />
<glyph unicode="," horiz-adv-x="335" d="M93 -149v298h149v-298l-74 -74z" />
<glyph unicode="-" horiz-adv-x="819" d="M93 670l75 75h484l74 -75l-74 -74h-484z" />
<glyph unicode="." horiz-adv-x="335" d="M93 0v149h149v-149h-149z" />
<glyph unicode="/" d="M93 74l287 578h84v-201l-222 -451q-112 0 -149 74zM505 689v201l221 451q112 0 149 -75l-287 -577h-83z" />
<glyph unicode="0" d="M93 93l149 56h447l56 -149h-559q-74 19 -93 93zM93 130v484l37 38l112 -112v-354zM93 726v484l149 -56v-353l-112 -112zM95 1247q19 74 93 94h557l-56 -149h-445zM726 149v391l112 112l37 -38v-521q-19 -74 -93 -93zM726 801v391l56 149q74 -19 93 -94v-521l-37 -37z" />
<glyph unicode="1" horiz-adv-x="335" d="M93 149v391l112 112l37 -38v-521q-19 -74 -93 -93zM93 801v391l56 149q74 -19 93 -94v-521l-37 -37z" />
<glyph unicode="2" d="M93 93l149 56h503l56 -149h-615q-74 19 -93 93zM93 130v484l37 38l112 -112v-354zM95 1247q19 74 93 94h557l-56 -149h-445zM168 670l74 75h484l75 -75l-75 -74h-484zM726 801v391l56 149q74 -19 93 -94v-521l-37 -37z" />
<glyph unicode="3" d="M93 93l149 56h447l56 -149h-559q-74 19 -93 93zM95 1247q19 74 93 94h557l-56 -149h-445zM168 670l74 75h484l75 -75l-75 -74h-484zM726 149v391l112 112l37 -38v-521q-19 -74 -93 -93zM726 801v391l56 149q74 -19 93 -94v-521l-37 -37z" />
<glyph unicode="4" d="M93 726v540l149 -56v-409l-112 -112zM168 670l74 75h484l75 -75l-75 -74h-484zM726 149v391l112 112l37 -38v-521q-19 -74 -93 -93zM726 801v391l56 149q74 -19 93 -94v-521l-37 -37z" />
<glyph unicode="5" d="M93 93l149 56h447l56 -149h-559q-74 19 -93 93zM93 726v484l149 -56v-353l-112 -112zM95 1247q19 74 93 94h613l-56 -149h-501zM168 670l74 75h484l75 -75l-75 -74h-484zM726 149v391l112 112l37 -38v-521q-19 -74 -93 -93z" />
<glyph unicode="6" d="M93 93l149 56h447l56 -149h-559q-74 19 -93 93zM93 130v484l37 38l112 -112v-354zM93 726v484l149 -56v-353l-112 -112zM95 1247q19 74 93 94h613l-56 -149h-501zM168 670l74 75h484l75 -75l-75 -74h-484zM726 149v391l112 112l37 -38v-521q-19 -74 -93 -93z" />
<glyph unicode="7" d="M93 726v484l149 -56v-353l-112 -112zM95 1247q19 74 93 94h557l-56 -149h-445zM726 149v391l112 112l37 -38v-521q-19 -74 -93 -93zM726 801v391l56 149q74 -19 93 -94v-521l-37 -37z" />
<glyph unicode="8" d="M93 93l149 56h447l56 -149h-559q-74 19 -93 93zM93 130v484l37 38l112 -112v-354zM93 726v484l149 -56v-353l-112 -112zM95 1247q19 74 93 94h557l-56 -149h-445zM168 670l74 75h484l75 -75l-75 -74h-484zM726 149v391l112 112l37 -38v-521q-19 -74 -93 -93zM726 801v391 l56 149q74 -19 93 -94v-521l-37 -37z" />
<glyph unicode="9" d="M93 93l149 56h447l56 -149h-559q-74 19 -93 93zM93 726v484l149 -56v-353l-112 -112zM95 1247q19 74 93 94h557l-56 -149h-445zM168 670l74 75h484l75 -75l-75 -74h-484zM726 149v391l112 112l37 -38v-521q-19 -74 -93 -93zM726 801v391l56 149q74 -19 93 -94v-521 l-37 -37z" />
<glyph unicode=":" horiz-adv-x="335" d="M93 298v149h149v-149h-149zM93 894v149h149v-149h-149z" />
<glyph unicode=";" horiz-adv-x="335" d="M93 -149v298h149v-298l-74 -74zM93 894v149h149v-149h-149z" />
<glyph unicode="&#x3c;" horiz-adv-x="688" d="M93 652h205l298 -300l-56 -73h-75zM93 689l372 372h75l56 -72l-298 -300h-205z" />
<glyph unicode="=" horiz-adv-x="819" d="M93 519l75 75h484l74 -75l-74 -74h-484zM93 819l75 75h484l74 -75l-74 -74h-484z" />
<glyph unicode="&#x3e;" horiz-adv-x="688" d="M93 352l298 300h205l-373 -373h-74zM93 989l56 72h74l373 -372h-205z" />
<glyph unicode="?" d="M93 0v149h149v-149h-149zM93 298v316l37 38l112 -112v-242h-149zM95 1247q19 74 93 94h557l-56 -149h-445zM168 670l74 75h484l75 -75l-75 -74h-484zM726 801v391l56 149q74 -19 93 -94v-521l-37 -37z" />
<glyph unicode="@" d="M93 93l149 56h447l56 -149h-559q-74 19 -93 93zM93 130v484l37 38l112 -112v-354zM93 726v484l149 -56v-353l-112 -112zM95 1247q19 74 93 94h557l-56 -149h-445zM391 389l149 58h149l56 -149l-261 -2q-74 19 -93 93zM391 428v186l37 38l112 -112v-56zM391 726v186 l149 -56v-55l-112 -112zM391 951q19 74 93 93l205 -1v-149h-149zM726 447v93l112 112l37 -38v-223q-19 -74 -93 -93zM726 801v391l56 149q74 -19 93 -94v-521l-37 -37z" />
<glyph unicode="A" d="M93 93v521l37 38l112 -112v-391l-56 -149q-74 19 -93 93zM93 726v484l149 -56v-353l-112 -112zM95 1247q19 74 93 94h557l-56 -149h-445zM168 670l74 75h484l75 -75l-75 -74h-484zM726 149v391l112 112l37 -38v-521q-19 -74 -93 -93zM726 801v391l56 149q74 -19 93 -94 v-521l-37 -37z" />
<glyph unicode="B" d="M93 0v93l149 56h445l74 -75l-74 -74h-594zM93 130v484l37 38l112 -112v-354zM93 726v484l149 -56v-353l-112 -112zM93 1247v94h596l74 -75l-74 -74h-447zM168 670l74 75h484l75 -75l-75 -74h-484zM726 149v391l112 112l37 -38v-428l-93 -93zM726 801v391l56 55l93 -93 v-428l-37 -37z" />
<glyph unicode="C" horiz-adv-x="893" d="M93 93l149 56h503l56 -149h-615q-74 19 -93 93zM93 130v484l37 38l112 -112v-354zM93 726v484l149 -56v-353l-112 -112zM95 1247q19 74 93 94h613l-56 -149h-501z" />
<glyph unicode="D" d="M93 0v93l149 56h445l74 -75l-74 -74h-594zM93 130v484l37 38l112 -112v-354zM93 726v484l149 -56v-353l-112 -112zM93 1247v94h596l74 -75l-74 -74h-447zM726 149v391l112 112l37 -38v-428l-93 -93zM726 801v391l56 55l93 -93v-428l-37 -37z" />
<glyph unicode="E" horiz-adv-x="893" d="M93 93l149 56h503l56 -149h-615q-74 19 -93 93zM93 130v484l37 38l112 -112v-354zM93 726v484l149 -56v-353l-112 -112zM95 1247q19 74 93 94h613l-56 -149h-501zM168 670l74 75h484l75 -75l-75 -74h-484z" />
<glyph unicode="F" horiz-adv-x="893" d="M93 93v521l37 38l112 -112v-391l-56 -149q-74 19 -93 93zM93 726v484l149 -56v-353l-112 -112zM95 1247q19 74 93 94h613l-56 -149h-501zM168 670l74 75h484l75 -75l-75 -74h-484z" />
<glyph unicode="G" d="M93 93l149 56h447l56 -149h-559q-74 19 -93 93zM93 130v484l37 38l112 -112v-354zM93 726v484l149 -56v-353l-112 -112zM95 1247q19 74 93 94h613l-56 -149h-501zM484 670l75 75h167l75 -75l-75 -74h-167zM726 149v391l112 112l37 -38v-521q-19 -74 -93 -93z" />
<glyph unicode="H" d="M93 93v521l37 38l112 -112v-391l-56 -149q-74 19 -93 93zM93 707v522q19 74 93 93l56 -149v-391l-112 -112zM168 670l74 75h484l75 -75l-75 -74h-484zM726 149v391l112 112l37 -38v-521q-19 -74 -93 -93zM726 801v391l56 149q74 -19 93 -94v-521l-37 -37z" />
<glyph unicode="I" horiz-adv-x="335" d="M93 168v391l112 111l37 -37v-521q-19 -74 -93 -93zM93 801v391l56 149q74 -19 93 -94v-521l-37 -37z" />
<glyph unicode="J" d="M93 93l149 56h447l56 -149h-559q-74 19 -93 93zM93 130v484l37 38l112 -112v-354zM726 149v391l112 112l37 -38v-521q-19 -74 -93 -93zM726 801v391l56 149q74 -19 93 -94v-521l-37 -37z" />
<glyph unicode="K" d="M93 93v521l37 38l112 -112v-391l-56 -149q-74 19 -93 93zM93 726v521q19 74 93 94l56 -149v-391l-112 -112zM168 670l74 75h484l75 -75l-75 -74h-484zM279 782v112l447 447q112 0 149 -75l-484 -484h-112zM726 149v391l112 112l37 -38v-521q-19 -74 -93 -93z" />
<glyph unicode="L" d="M93 93v521l37 38l112 -112v-391l-56 -149q-74 19 -93 93zM93 726v521q19 74 93 94l56 -149v-391l-112 -112zM223 0l56 149h447l149 -56q-19 -74 -93 -93h-559z" />
<glyph unicode="M" d="M93 93v521l37 38l112 -112v-391l-56 -149q-74 19 -93 93zM93 726v484l149 -56v-353l-112 -112zM95 1247q19 74 93 94h557l-56 -149h-445zM410 726v428h149v-428l-75 -74zM726 149v391l112 112l37 -38v-521q-19 -74 -93 -93zM726 801v391l56 149q74 -19 93 -94v-521 l-37 -37z" />
<glyph unicode="N" d="M93 93v521l37 38l112 -112v-391l-56 -149q-74 19 -93 93zM93 707v522q19 74 93 93l56 -149v-391l-112 -112zM279 1061v112h112l298 -298v-93h-130zM726 149v391l112 112l37 -38v-521q-19 -74 -93 -93zM726 782v391l56 149q74 -19 93 -93v-522l-37 -37z" />
<glyph unicode="O" d="M93 186v428l37 38l112 -112v-391l-56 -56zM93 726v428l93 93l56 -55v-391l-112 -112zM205 74l74 75h410l74 -75l-74 -74h-410zM205 1266l74 75h410l74 -75l-74 -74h-410zM726 149v391l112 112l37 -38v-428l-93 -93zM726 801v391l56 55l93 -93v-428l-37 -37z" />
<glyph unicode="P" d="M93 93v521l37 38l112 -112v-391l-56 -149q-74 19 -93 93zM93 726v484l149 -56v-353l-112 -112zM93 1247v94h596l74 -75l-74 -74h-447zM168 670l74 75h484l75 -75l-75 -74h-484zM726 801v391l56 55l93 -93v-428l-37 -37z" />
<glyph unicode="Q" horiz-adv-x="986" d="M93 93l149 56h317l148 -149h-521q-74 19 -93 93zM93 130v484l37 38l112 -112v-354zM93 726v484l149 -56v-353l-112 -112zM95 1247q19 74 93 94h557l-56 -149h-445zM540 223v112h112l242 -242v-112h-112zM726 317v223l112 112l37 -38v-446zM726 801v391l56 149 q74 -19 93 -94v-521l-37 -37z" />
<glyph unicode="R" d="M93 93v521l37 38l112 -112v-391l-56 -149q-74 19 -93 93zM93 726v484l149 -56v-353l-112 -112zM95 1247q19 74 93 94h557l-56 -149h-445zM168 670l74 75h484l75 -75l-75 -74h-484zM279 447v112h112l484 -485q-37 -74 -149 -74zM726 801v391l56 149q74 -19 93 -94v-521 l-37 -37z" />
<glyph unicode="S" d="M93 93l149 56h447l56 -149h-559q-74 19 -93 93zM93 726v484l149 -56v-353l-112 -112zM95 1247q19 74 93 94h594q74 -19 93 -94l-149 -55h-482zM168 670l74 75h484l75 -75l-75 -74h-484zM726 149v391l112 112l37 -38v-521q-19 -74 -93 -93z" />
<glyph unicode="T" horiz-adv-x="966" d="M93 1247q19 74 93 94h594q74 -19 93 -94l-149 -55h-482zM408 149v428l74 75l75 -75v-484q-19 -74 -93 -93zM408 763v391h149v-391l-75 -74z" />
<glyph unicode="U" d="M93 93l149 56h447l56 -149h-559q-74 19 -93 93zM93 130v484l37 38l112 -112v-354zM93 707v522q19 74 93 93l56 -149v-391l-112 -112zM726 149v391l112 112l37 -38v-521q-19 -74 -93 -93zM726 801v391l56 149q74 -19 93 -94v-521l-37 -37z" />
<glyph unicode="V" d="M93 484v112l37 37l112 -112l223 -298v-223zM93 707v522q19 74 93 93l56 -149v-391l-112 -112zM503 0v223l223 298l112 112l37 -37v-112zM726 782v391l56 149q74 -19 93 -93v-522l-37 -37z" />
<glyph unicode="W" d="M93 130v484l37 38l112 -112v-354zM93 726v521q19 74 93 94l56 -149v-391l-112 -112zM95 93l149 56h445l56 -149h-557q-74 19 -93 93zM410 186v428l74 75l75 -75v-428h-149zM726 149v391l112 112l37 -38v-521q-19 -74 -93 -93zM726 801v391l56 149q74 -19 93 -94v-521 l-37 -37z" />
<glyph unicode="X" d="M93 74l287 578h84v-201l-222 -451q-112 0 -149 74zM95 1266q37 74 149 75l221 -453v-199h-83zM503 451v201h83l287 -578q-37 -74 -149 -74zM505 689v201l221 451q112 0 149 -75l-287 -577h-83z" />
<glyph unicode="Y" d="M93 93l149 56h447l56 -149h-559q-74 19 -93 93zM93 726v540l149 -56v-409l-112 -112zM168 670l74 75h484l75 -75l-75 -74h-484zM726 149v391l112 112l37 -38v-521q-19 -74 -93 -93zM726 801v391l56 149q74 -19 93 -94v-521l-37 -37z" />
<glyph unicode="Z" d="M93 74l298 578h112v-112l-261 -540q-112 0 -149 74zM95 1247q19 74 93 94h501l-75 -149h-370zM279 0l75 149h391l56 -149h-522zM484 689v112l242 540q112 0 149 -75l-279 -577h-112z" />
<glyph unicode="[" horiz-adv-x="577" d="M93 130v484l37 38l112 -112v-354zM93 726v484l149 -56v-353l-112 -112zM95 93l149 56h128l112 -112l-37 -37h-259q-74 19 -93 93zM95 1247q19 74 93 94h259l37 -38l-112 -111h-128z" />
<glyph unicode="\" horiz-adv-x="964" d="M93 1266q37 74 149 75l222 -453v-199h-84zM501 451v201h84l286 -578q-37 -74 -149 -74z" />
<glyph unicode="]" horiz-adv-x="577" d="M93 37l112 112h93l56 -149h-224zM93 1303l37 38h224l-56 -149h-93zM335 149v391l112 112l37 -38v-521q-19 -74 -93 -93zM335 801v391l56 149q74 -19 93 -94v-521l-37 -37z" />
<glyph unicode="^" horiz-adv-x="966" d="M93 894v74l372 373l-1 -205l-298 -298zM501 1136v205l372 -373v-74l-72 -56z" />
<glyph unicode="_" horiz-adv-x="966" d="M93 93l149 56h482l149 -56q-19 -74 -93 -93h-594q-74 19 -93 93z" />
<glyph unicode="`" horiz-adv-x="521" d="M93 1303l19 75h74l242 -242v-75l-74 -18z" />
<glyph unicode="a" d="M93 93v521l37 38l112 -112v-391l-56 -149q-74 19 -93 93zM93 726v484l149 -56v-353l-112 -112zM95 1247q19 74 93 94h557l-56 -149h-445zM168 670l74 75h484l75 -75l-75 -74h-484zM726 149v391l112 112l37 -38v-521q-19 -74 -93 -93zM726 801v391l56 149q74 -19 93 -94 v-521l-37 -37z" />
<glyph unicode="b" d="M93 0v93l149 56h445l74 -75l-74 -74h-594zM93 130v484l37 38l112 -112v-354zM93 726v484l149 -56v-353l-112 -112zM93 1247v94h596l74 -75l-74 -74h-447zM168 670l74 75h484l75 -75l-75 -74h-484zM726 149v391l112 112l37 -38v-428l-93 -93zM726 801v391l56 55l93 -93 v-428l-37 -37z" />
<glyph unicode="c" horiz-adv-x="893" d="M93 93l149 56h503l56 -149h-615q-74 19 -93 93zM93 130v484l37 38l112 -112v-354zM93 726v484l149 -56v-353l-112 -112zM95 1247q19 74 93 94h613l-56 -149h-501z" />
<glyph unicode="d" d="M93 0v93l149 56h445l74 -75l-74 -74h-594zM93 130v484l37 38l112 -112v-354zM93 726v484l149 -56v-353l-112 -112zM93 1247v94h596l74 -75l-74 -74h-447zM726 149v391l112 112l37 -38v-428l-93 -93zM726 801v391l56 55l93 -93v-428l-37 -37z" />
<glyph unicode="e" horiz-adv-x="893" d="M93 93l149 56h503l56 -149h-615q-74 19 -93 93zM93 130v484l37 38l112 -112v-354zM93 726v484l149 -56v-353l-112 -112zM95 1247q19 74 93 94h613l-56 -149h-501zM168 670l74 75h484l75 -75l-75 -74h-484z" />
<glyph unicode="f" horiz-adv-x="893" d="M93 93v521l37 38l112 -112v-391l-56 -149q-74 19 -93 93zM93 726v484l149 -56v-353l-112 -112zM95 1247q19 74 93 94h613l-56 -149h-501zM168 670l74 75h484l75 -75l-75 -74h-484z" />
<glyph unicode="g" d="M93 93l149 56h447l56 -149h-559q-74 19 -93 93zM93 130v484l37 38l112 -112v-354zM93 726v484l149 -56v-353l-112 -112zM95 1247q19 74 93 94h613l-56 -149h-501zM484 670l75 75h167l75 -75l-75 -74h-167zM726 149v391l112 112l37 -38v-521q-19 -74 -93 -93z" />
<glyph unicode="h" d="M93 93v521l37 38l112 -112v-391l-56 -149q-74 19 -93 93zM93 707v522q19 74 93 93l56 -149v-391l-112 -112zM168 670l74 75h484l75 -75l-75 -74h-484zM726 149v391l112 112l37 -38v-521q-19 -74 -93 -93zM726 801v391l56 149q74 -19 93 -94v-521l-37 -37z" />
<glyph unicode="i" horiz-adv-x="335" d="M93 168v391l112 111l37 -37v-521q-19 -74 -93 -93zM93 801v391l56 149q74 -19 93 -94v-521l-37 -37z" />
<glyph unicode="j" d="M93 93l149 56h447l56 -149h-559q-74 19 -93 93zM93 130v484l37 38l112 -112v-354zM726 149v391l112 112l37 -38v-521q-19 -74 -93 -93zM726 801v391l56 149q74 -19 93 -94v-521l-37 -37z" />
<glyph unicode="k" d="M93 93v521l37 38l112 -112v-391l-56 -149q-74 19 -93 93zM93 726v521q19 74 93 94l56 -149v-391l-112 -112zM168 670l74 75h484l75 -75l-75 -74h-484zM279 782v112l447 447q112 0 149 -75l-484 -484h-112zM726 149v391l112 112l37 -38v-521q-19 -74 -93 -93z" />
<glyph unicode="l" d="M93 93v521l37 38l112 -112v-391l-56 -149q-74 19 -93 93zM93 726v521q19 74 93 94l56 -149v-391l-112 -112zM223 0l56 149h447l149 -56q-19 -74 -93 -93h-559z" />
<glyph unicode="m" d="M93 93v521l37 38l112 -112v-391l-56 -149q-74 19 -93 93zM93 726v484l149 -56v-353l-112 -112zM95 1247q19 74 93 94h557l-56 -149h-445zM410 726v428h149v-428l-75 -74zM726 149v391l112 112l37 -38v-521q-19 -74 -93 -93zM726 801v391l56 149q74 -19 93 -94v-521 l-37 -37z" />
<glyph unicode="n" d="M93 93v521l37 38l112 -112v-391l-56 -149q-74 19 -93 93zM93 707v522q19 74 93 93l56 -149v-391l-112 -112zM279 1061v112h112l298 -298v-93h-130zM726 149v391l112 112l37 -38v-521q-19 -74 -93 -93zM726 782v391l56 149q74 -19 93 -93v-522l-37 -37z" />
<glyph unicode="o" d="M93 186v428l37 38l112 -112v-391l-56 -56zM93 726v428l93 93l56 -55v-391l-112 -112zM205 74l74 75h410l74 -75l-74 -74h-410zM205 1266l74 75h410l74 -75l-74 -74h-410zM726 149v391l112 112l37 -38v-428l-93 -93zM726 801v391l56 55l93 -93v-428l-37 -37z" />
<glyph unicode="p" d="M93 93v521l37 38l112 -112v-391l-56 -149q-74 19 -93 93zM93 726v484l149 -56v-353l-112 -112zM93 1247v94h596l74 -75l-74 -74h-447zM168 670l74 75h484l75 -75l-75 -74h-484zM726 801v391l56 55l93 -93v-428l-37 -37z" />
<glyph unicode="q" horiz-adv-x="986" d="M93 93l149 56h317l148 -149h-521q-74 19 -93 93zM93 130v484l37 38l112 -112v-354zM93 726v484l149 -56v-353l-112 -112zM95 1247q19 74 93 94h557l-56 -149h-445zM540 223v112h112l242 -242v-112h-112zM726 317v223l112 112l37 -38v-446zM726 801v391l56 149 q74 -19 93 -94v-521l-37 -37z" />
<glyph unicode="r" d="M93 93v521l37 38l112 -112v-391l-56 -149q-74 19 -93 93zM93 726v484l149 -56v-353l-112 -112zM95 1247q19 74 93 94h557l-56 -149h-445zM168 670l74 75h484l75 -75l-75 -74h-484zM279 447v112h112l484 -485q-37 -74 -149 -74zM726 801v391l56 149q74 -19 93 -94v-521 l-37 -37z" />
<glyph unicode="s" d="M93 93l149 56h447l56 -149h-559q-74 19 -93 93zM93 726v484l149 -56v-353l-112 -112zM95 1247q19 74 93 94h594q74 -19 93 -94l-149 -55h-482zM168 670l74 75h484l75 -75l-75 -74h-484zM726 149v391l112 112l37 -38v-521q-19 -74 -93 -93z" />
<glyph unicode="t" horiz-adv-x="966" d="M93 1247q19 74 93 94h594q74 -19 93 -94l-149 -55h-482zM408 149v428l74 75l75 -75v-484q-19 -74 -93 -93zM408 763v391h149v-391l-75 -74z" />
<glyph unicode="u" d="M93 93l149 56h447l56 -149h-559q-74 19 -93 93zM93 130v484l37 38l112 -112v-354zM93 707v522q19 74 93 93l56 -149v-391l-112 -112zM726 149v391l112 112l37 -38v-521q-19 -74 -93 -93zM726 801v391l56 149q74 -19 93 -94v-521l-37 -37z" />
<glyph unicode="v" d="M93 484v112l37 37l112 -112l223 -298v-223zM93 707v522q19 74 93 93l56 -149v-391l-112 -112zM503 0v223l223 298l112 112l37 -37v-112zM726 782v391l56 149q74 -19 93 -93v-522l-37 -37z" />
<glyph unicode="w" d="M93 130v484l37 38l112 -112v-354zM93 726v521q19 74 93 94l56 -149v-391l-112 -112zM95 93l149 56h445l56 -149h-557q-74 19 -93 93zM410 186v428l74 75l75 -75v-428h-149zM726 149v391l112 112l37 -38v-521q-19 -74 -93 -93zM726 801v391l56 149q74 -19 93 -94v-521 l-37 -37z" />
<glyph unicode="x" d="M93 74l287 578h84v-201l-222 -451q-112 0 -149 74zM95 1266q37 74 149 75l221 -453v-199h-83zM503 451v201h83l287 -578q-37 -74 -149 -74zM505 689v201l221 451q112 0 149 -75l-287 -577h-83z" />
<glyph unicode="y" d="M93 93l149 56h447l56 -149h-559q-74 19 -93 93zM93 726v540l149 -56v-409l-112 -112zM168 670l74 75h484l75 -75l-75 -74h-484zM726 149v391l112 112l37 -38v-521q-19 -74 -93 -93zM726 801v391l56 149q74 -19 93 -94v-521l-37 -37z" />
<glyph unicode="z" d="M93 74l298 578h112v-112l-261 -540q-112 0 -149 74zM95 1247q19 74 93 94h501l-75 -149h-370zM279 0l75 149h391l56 -149h-522zM484 689v112l242 540q112 0 149 -75l-279 -577h-112z" />
<glyph unicode="{" horiz-adv-x="800" d="M93 670l75 75h130l74 -75l-74 -74h-130zM317 130v410l111 112l37 -38v-428zM317 801v409l148 -56v-428l-37 -37zM318 93l149 56h129l111 -112l-37 -37h-259q-74 19 -93 93zM318 1247q19 74 93 94h259l37 -38l-111 -111h-129z" />
<glyph unicode="|" horiz-adv-x="335" d="M93 149v1043l56 149q74 -19 93 -94v-1154q-19 -74 -93 -93z" />
<glyph unicode="}" horiz-adv-x="800" d="M93 37l112 112h128l149 -56q-19 -74 -93 -93h-259zM93 1303l37 38h259q74 -19 93 -94l-149 -55h-128zM335 186v428l37 38l112 -112v-410zM335 726v428l149 56v-409l-112 -112zM428 670l75 75h130l74 -75l-74 -74h-130z" />
<glyph unicode="~" horiz-adv-x="1005" d="M93 817l75 75h74l75 -75l-75 -74h-74zM242 931l75 74h74l74 -74l-74 -75h-74zM391 819l74 75h75l74 -75l-74 -74h-75zM540 689l74 74h75l74 -74l-74 -75h-75zM689 819l74 75h75l74 -75l-74 -74h-75z" />
<glyph unicode="&#xa9;" horiz-adv-x="1079" d="M93 93l149 56h559l55 -149h-670q-74 19 -93 93zM93 130v1080l149 -56v-968zM95 1247q19 74 93 94h668l-55 -149h-557zM317 391v521l148 -56v-409l-55 -149q-74 19 -93 93zM317 950q19 74 93 93h353l-56 -149h-242zM447 298l56 149h111l149 -56q-19 -74 -93 -93h-223z M838 149v1043l56 149q74 -19 93 -94v-1154q-19 -74 -93 -93z" />
<glyph unicode="&#xad;" horiz-adv-x="819" d="M93 670l75 75h484l74 -75l-74 -74h-484z" />
<glyph unicode="&#x2000;" horiz-adv-x="782" />
<glyph unicode="&#x2001;" horiz-adv-x="1564" />
<glyph unicode="&#x2002;" horiz-adv-x="782" />
<glyph unicode="&#x2003;" horiz-adv-x="1564" />
<glyph unicode="&#x2004;" horiz-adv-x="521" />
<glyph unicode="&#x2005;" horiz-adv-x="391" />
<glyph unicode="&#x2006;" horiz-adv-x="260" />
<glyph unicode="&#x2007;" horiz-adv-x="260" />
<glyph unicode="&#x2008;" horiz-adv-x="195" />
<glyph unicode="&#x2009;" horiz-adv-x="312" />
<glyph unicode="&#x200a;" horiz-adv-x="86" />
<glyph unicode="&#x2010;" horiz-adv-x="819" d="M93 670l75 75h484l74 -75l-74 -74h-484z" />
<glyph unicode="&#x2011;" horiz-adv-x="819" d="M93 670l75 75h484l74 -75l-74 -74h-484z" />
<glyph unicode="&#x2012;" horiz-adv-x="819" d="M93 670l75 75h484l74 -75l-74 -74h-484z" />
<glyph unicode="&#x2013;" horiz-adv-x="1005" d="M93 670l75 75h670l74 -75l-74 -74h-670z" />
<glyph unicode="&#x2014;" horiz-adv-x="1079" d="M93 670l75 75h744l75 -75l-75 -74h-744z" />
<glyph unicode="&#x2018;" horiz-adv-x="335" d="M93 968v298l75 75l74 -75v-298h-149z" />
<glyph unicode="&#x2019;" horiz-adv-x="335" d="M93 1043v298h149v-298l-74 -75z" />
<glyph unicode="&#x201c;" horiz-adv-x="633" d="M93 970v298l75 74l74 -74v-298h-149zM391 968v298l74 75l75 -75v-298h-149z" />
<glyph unicode="&#x201d;" horiz-adv-x="634" d="M93 1043v298h149v-298l-74 -75zM393 1044v298h149v-298l-75 -74z" />
<glyph unicode="&#x2022;" horiz-adv-x="726" d="M93 680q0 112 79 191t191 79t191 -79.5t79 -190.5q0 -112 -79 -191t-191 -79t-191 79t-79 191z" />
<glyph unicode="&#x202f;" horiz-adv-x="312" />
<glyph unicode="&#x205f;" horiz-adv-x="391" />
<glyph unicode="&#xe000;" horiz-adv-x="1340" d="M0 0v1341h1341v-1341h-1341z" />
</font>
</defs>
</svg>
